<?xml version="1.0" standalone="no"?>
<!DOCTYPE svg PUBLIC "-//W3C//DTD SVG 20010904//EN"
 "http://www.w3.org/TR/2001/REC-SVG-20010904/DTD/svg10.dtd">
<svg version="1.0" xmlns="http://www.w3.org/2000/svg"
 width="1368.000000pt" height="1368.000000pt" viewBox="0 0 1368.000000 1368.000000"
 preserveAspectRatio="xMidYMid meet">
<metadata>
Created by potrace 1.11, written by Peter Selinger 2001-2013
</metadata>
<g transform="translate(0.000000,1368.000000) scale(0.100000,-0.100000)"
fill="#000000" stroke="none">
<path d="M6809 13643 c-19 -50 -21 -190 -23 -1588 -2 -1419 -2 -1422 -37
-1445 -6 -4 -65 -78 -117 -145 -55 -73 -171 -296 -227 -440 -34 -87 -70 -206
-80 -265 -4 -25 -9 -54 -12 -65 -18 -81 -25 -506 -11 -615 14 -101 24 -157 38
-210 5 -19 10 -38 10 -42 2 -11 59 -180 69 -203 58 -135 167 -330 211 -378 10
-10 23 -16 28 -13 10 6 24 65 28 121 1 17 3 30 4 30 1 0 3 23 5 50 2 28 4 50
5 50 2 0 7 55 13 145 2 25 6 51 10 57 4 6 3 14 -3 18 -6 4 -7 11 -4 17 4 5 8
33 10 61 2 29 6 75 9 102 5 55 17 200 20 255 2 19 3 35 4 35 1 0 4 25 6 55 4
76 15 208 20 250 2 19 7 69 11 110 3 41 7 91 9 110 2 19 6 71 10 115 12 125
13 146 14 213 1 34 5 62 9 62 5 0 9 -6 9 -12 1 -22 13 -111 19 -148 3 -19 7
-66 9 -105 3 -38 5 -70 5 -70 4 0 8 -41 15 -128 3 -53 8 -111 11 -129 2 -18 7
-67 10 -108 3 -41 7 -91 9 -110 2 -19 6 -73 9 -120 3 -47 6 -85 7 -85 1 0 5
-45 13 -145 2 -36 5 -65 6 -65 1 0 3 -20 5 -45 10 -157 48 -525 55 -525 1 0 4
-11 6 -25 10 -56 30 -46 88 44 78 122 169 320 203 441 8 28 21 75 29 105 9 30
17 68 19 84 3 15 7 35 9 45 3 9 8 39 11 66 4 28 9 64 13 80 15 75 5 471 -13
535 -2 8 -7 29 -10 45 -11 67 -16 85 -24 107 -5 13 -10 28 -11 33 -1 6 -9 26
-17 45 -9 19 -15 44 -14 56 5 54 -121 316 -234 483 -28 41 -54 82 -60 90 -5 9
-12 18 -16 21 -3 3 -20 27 -39 53 l-35 49 0 1262 c-1 694 -5 1267 -9 1274 -4
7 -2 12 4 12 6 0 8 5 5 11 -4 6 -8 76 -10 157 -3 156 -10 225 -29 280 -11 34
-63 31 -77 -5z"/>
<path d="M8130 12660 c-11 -11 -20 -32 -21 -47 -1 -16 -3 -44 -4 -63 -8 -87
-16 -882 -19 -1825 l-3 -1030 -39 -13 c-21 -8 -50 -16 -64 -18 -72 -13 -385
-158 -375 -174 3 -6 1 -10 -5 -10 -7 0 -8 -6 -1 -19 6 -10 8 -21 4 -24 -3 -4
-7 -57 -10 -119 -4 -117 -10 -233 -13 -233 -2 0 -6 -40 -10 -97 -2 -27 -6 -48
-9 -48 -3 0 -7 -20 -8 -44 -1 -25 -9 -71 -18 -103 -9 -32 -18 -82 -21 -110 -5
-47 -3 -53 14 -53 11 0 36 16 56 35 21 19 39 35 41 35 2 0 24 19 48 43 25 23
66 60 92 82 26 22 60 51 75 65 38 35 175 158 223 200 22 19 56 50 76 67 37 33
58 43 45 21 -11 -19 -162 -241 -237 -348 -37 -52 -73 -103 -80 -113 -16 -25
-84 -119 -95 -132 -4 -5 -32 -46 -62 -90 -30 -44 -57 -82 -60 -85 -3 -3 -21
-27 -40 -54 -35 -52 -46 -106 -29 -153 5 -13 5 -23 1 -23 -4 0 -7 -11 -7 -25
0 -14 2 -25 5 -25 5 0 12 -97 14 -197 1 -29 4 -53 7 -53 4 0 6 -8 5 -17 -1
-15 6 -17 33 -15 19 2 46 9 60 14 14 6 35 13 46 15 11 2 22 8 23 13 2 6 12 10
23 10 10 0 19 4 19 9 0 5 14 12 30 16 17 4 30 10 30 15 0 4 8 10 18 14 17 6
23 9 102 61 84 55 145 113 219 209 49 65 159 244 192 316 27 56 49 108 49 113
0 2 8 22 17 43 9 22 18 44 19 49 2 6 12 40 23 78 11 37 22 84 26 105 3 20 8
51 11 67 14 78 22 245 28 609 3 170 8 311 10 314 3 2 1 13 -4 23 -6 10 -7 20
-2 23 7 4 8 51 2 66 -1 3 -1 10 0 15 2 6 4 586 5 1290 2 1084 0 1284 -12 1308
-12 25 -19 28 -58 26 -25 -2 -46 -5 -46 -8 -2 -6 -3 -219 -14 -1806 -6 -875
-9 -1080 -14 -1080 -1 0 -3 -19 -5 -43 -3 -48 -18 -64 -50 -52 -12 4 -49 8
-83 8 -33 0 -65 2 -71 6 -6 3 -10 359 -11 943 0 516 -2 955 -4 976 -1 21 1 41
5 43 5 3 3 14 -2 25 -6 10 -7 19 -3 19 4 0 6 41 3 91 -3 50 -1 97 3 105 4 8 4
14 0 14 -4 0 -9 105 -9 233 -3 448 -7 522 -30 522 -5 0 -14 4 -21 8 -7 5 -21
-1 -33 -13z"/>
<path d="M5163 12662 c-6 -4 -15 -21 -18 -37 -10 -47 -18 -270 -19 -517 -1
-126 -5 -228 -9 -228 -5 0 -5 -6 -1 -12 10 -16 10 -50 0 -66 -4 -6 -3 -12 2
-12 5 0 7 -12 5 -27 -5 -33 -5 -38 0 -80 2 -18 0 -33 -5 -33 -4 0 -3 -11 2
-25 6 -16 6 -25 -1 -25 -6 0 -6 -6 0 -19 6 -10 7 -21 4 -25 -10 -9 -10 -56 0
-56 4 0 5 -5 2 -11 -11 -17 -13 -59 -3 -59 5 0 6 -6 1 -12 -11 -19 -12 -2060
0 -2075 6 -9 6 -13 -2 -13 -7 0 -9 -5 -6 -11 4 -6 9 -43 11 -82 3 -66 9 -118
20 -189 13 -88 16 -100 31 -163 4 -16 8 -34 9 -40 1 -5 3 -12 4 -15 1 -3 3
-12 5 -20 1 -8 17 -58 35 -110 90 -269 230 -486 410 -636 85 -71 83 -69 111
-84 13 -7 26 -16 29 -19 8 -11 142 -74 185 -87 73 -23 96 -27 106 -17 9 9 13
33 23 153 3 25 5 45 6 45 1 0 4 18 6 40 2 22 10 72 18 112 12 64 12 75 -2 95
-9 13 -19 25 -22 28 -3 3 -32 42 -63 88 -32 46 -109 155 -172 243 -63 88 -115
165 -115 170 0 6 -4 7 -10 4 -5 -3 -10 0 -10 7 0 8 -13 29 -30 48 -16 19 -29
41 -30 48 0 6 -3 12 -7 12 -5 0 -19 17 -33 38 -14 20 -44 63 -67 96 -60 81
-56 103 6 47 18 -16 47 -40 64 -53 17 -13 41 -32 53 -43 12 -11 43 -38 69 -60
25 -22 61 -53 80 -70 113 -103 345 -295 355 -295 11 0 6 30 -25 160 -1 3 -5
23 -10 45 -5 22 -10 42 -10 45 -4 15 -19 109 -21 130 -1 14 -3 25 -4 25 -6 0
-28 284 -34 425 l-2 65 -42 22 c-23 12 -42 19 -42 15 0 -4 -7 2 -16 13 -8 11
-18 19 -22 18 -4 0 -23 6 -42 14 -113 48 -180 72 -219 78 -25 4 -50 14 -57 23
-11 15 -21 63 -30 147 -7 66 -14 698 -19 1590 -4 860 -9 1125 -20 1180 -2 11
-4 28 -4 38 -1 11 -9 17 -26 17 -28 0 -36 -28 -39 -135 0 -36 -5 -65 -9 -65
-4 0 -3 -8 2 -19 6 -10 8 -21 5 -24 -7 -6 -13 -485 -18 -1359 -2 -367 -6 -670
-9 -675 -2 -4 -2 -17 0 -28 3 -11 4 -29 4 -40 0 -11 -2 -151 -3 -312 -2 -160
-6 -294 -9 -298 -9 -9 -46 -15 -136 -21 -82 -6 -83 -6 -84 17 -1 13 -3 40 -5
59 -6 58 -16 1166 -18 1864 0 361 -3 656 -6 656 -7 0 -5 54 3 67 4 6 4 13 0
17 -4 3 -8 48 -9 98 -5 169 -18 220 -51 200z"/>
<path d="M11711 9483 c-16 -14 -22 -33 -26 -81 -2 -35 -7 -67 -10 -73 -4 -5
-1 -9 5 -9 6 0 8 -5 4 -12 -8 -13 -11 -193 -19 -1183 -3 -374 -6 -706 -7 -738
-2 -31 1 -57 5 -57 5 0 5 -5 1 -12 -4 -6 -9 -57 -11 -112 -4 -130 -7 -158 -16
-174 -5 -6 -5 -12 -1 -12 4 0 -8 -13 -26 -30 -18 -16 -40 -30 -47 -30 -7 0
-13 -5 -13 -10 0 -6 -3 -9 -7 -8 -9 2 -105 -43 -113 -53 -3 -3 -14 -8 -25 -11
-11 -3 -27 -9 -35 -12 -13 -5 -15 29 -18 269 -2 151 -5 284 -7 295 -2 11 1 20
6 20 6 0 7 5 4 11 -4 6 -8 385 -10 842 -2 458 -4 832 -5 832 -1 0 -3 36 -5 79
-5 82 -17 109 -55 119 -28 7 -48 -13 -55 -58 -11 -75 -15 -389 -15 -1423 l0
-1033 -117 -56 c-65 -30 -119 -59 -121 -64 -2 -5 -9 -9 -15 -9 -16 0 -112 -64
-160 -107 -20 -18 -35 -33 -32 -33 4 0 -8 -15 -25 -32 -16 -18 -33 -41 -36
-50 -3 -10 -9 -18 -13 -18 -4 0 -29 -42 -54 -93 -45 -93 -98 -251 -112 -337
-15 -96 -7 -320 14 -357 4 -8 27 8 68 45 148 138 191 164 438 262 44 18 85 33
90 35 6 1 24 8 40 14 17 7 53 21 81 32 133 50 296 179 377 299 17 25 35 48 40
51 5 3 8 9 8 13 0 3 14 37 33 75 29 59 39 86 52 136 35 137 34 94 31 1465 -2
1354 -3 1379 -39 1402 -18 11 -23 10 -47 -9z"/>
<path d="M1930 9475 c-7 -8 -16 -46 -21 -83 -4 -37 -6 -672 -5 -1412 l3 -1345
22 -38 c11 -21 21 -42 21 -48 0 -6 9 -24 21 -40 11 -16 17 -29 13 -29 -4 0 -1
-8 7 -17 8 -10 21 -31 29 -48 46 -95 174 -245 210 -245 5 0 10 -4 10 -10 0 -5
4 -10 10 -10 5 0 32 -13 60 -30 27 -16 50 -26 50 -22 0 4 4 3 8 -3 10 -14 94
-53 217 -100 123 -47 130 -50 135 -50 3 -1 23 -9 45 -19 22 -10 51 -22 64 -27
41 -16 153 -95 205 -143 27 -25 52 -46 57 -46 4 0 12 -6 16 -13 12 -21 40 -27
53 -12 8 9 8 15 0 20 -8 5 -8 11 0 19 11 14 8 279 -4 326 -4 14 -9 41 -12 60
-3 19 -17 69 -31 110 -85 254 -252 440 -478 531 -16 7 -32 13 -35 14 -27 6
-87 29 -93 35 -5 4 -10 540 -12 1191 -2 651 -6 1200 -8 1219 -11 91 -18 109
-47 119 -62 21 -70 -12 -75 -316 -2 -111 -6 -206 -9 -211 -2 -4 -1 -14 4 -22
5 -9 5 -19 -1 -26 -6 -8 -7 -14 0 -18 6 -4 6 -18 1 -34 -4 -16 -4 -36 2 -45 6
-11 5 -24 -2 -38 -8 -14 -8 -24 -1 -32 6 -8 6 -18 1 -27 -5 -9 -5 -19 1 -27 7
-8 7 -18 -1 -32 -7 -15 -8 -27 0 -40 7 -14 7 -22 0 -26 -8 -5 -7 -11 1 -21 9
-11 9 -14 0 -14 -8 0 -9 -5 -3 -16 5 -8 5 -37 1 -62 -4 -26 -4 -51 0 -57 6 -9
6 -33 1 -45 -6 -14 -5 -70 1 -70 4 0 4 -13 -1 -28 -4 -16 -4 -36 2 -45 5 -10
5 -17 1 -17 -7 0 -9 -64 -3 -80 1 -3 1 -9 0 -15 -6 -28 -4 -275 3 -275 4 0 4
-8 0 -17 -5 -10 -7 -31 -6 -48 4 -37 4 4 -2 -340 -7 -423 -8 -430 -43 -418
-52 17 -185 88 -217 117 -42 35 -47 54 -49 183 0 40 -4 73 -7 73 -6 0 -2 78 6
98 2 6 0 12 -5 12 -10 0 -8 40 4 58 4 7 4 12 -1 12 -4 0 -8 396 -8 880 0 484
-2 880 -5 880 -3 0 -5 46 -6 103 0 129 -8 187 -25 198 -22 14 -55 11 -69 -6z"/>
<path d="M4491 9230 c-14 -9 -19 -34 -10 -52 6 -10 5 -19 -1 -23 -6 -3 -6 -15
0 -29 5 -13 6 -26 3 -30 -9 -9 -9 -156 0 -156 4 0 5 -5 1 -11 -4 -7 -8 -316
-10 -688 -3 -648 -11 -1228 -18 -1376 -2 -38 -4 -80 -5 -93 -1 -16 -12 -27
-38 -39 -21 -10 -49 -25 -63 -34 -56 -37 -147 -81 -175 -86 l-30 -4 0 1223 c0
673 -1 1231 -4 1240 -2 14 -10 17 -35 12 -17 -3 -43 -6 -57 -6 -22 1 -28 -5
-31 -26 -2 -15 -5 -317 -7 -672 -6 -1328 -9 -1805 -10 -1816 -1 -7 -13 -15
-28 -18 -35 -9 -207 -89 -211 -98 -2 -5 -10 -8 -17 -8 -7 0 -15 -3 -17 -7 -1
-5 -24 -23 -50 -41 -91 -63 -167 -152 -228 -264 -43 -81 -94 -223 -85 -238 3
-6 2 -10 -2 -10 -5 0 -9 -8 -10 -17 -1 -41 -10 -111 -14 -119 -8 -15 -4 -278
4 -291 5 -7 15 -13 23 -13 9 0 21 6 28 13 7 6 37 32 66 57 29 25 58 50 65 55
34 31 225 126 237 119 4 -3 8 -1 8 3 0 6 143 64 170 68 3 1 22 9 44 18 21 9
40 17 42 17 5 0 113 49 169 77 59 30 193 163 248 245 47 71 103 182 112 223 2
6 8 30 15 55 16 56 19 80 26 205 5 93 9 1678 4 1700 -1 6 -1 15 0 20 2 10 0
88 -3 158 -1 20 1 37 4 37 4 0 5 8 3 18 -9 35 -10 88 -3 115 4 15 5 27 1 27
-10 0 -8 312 1 328 5 6 4 12 0 12 -5 0 -8 47 -8 105 1 58 -2 109 -5 113 -6 9
-87 10 -99 2z"/>
<path d="M9100 9230 c-8 -5 -12 -198 -16 -686 -2 -373 -4 -683 -4 -689 -3 -72
10 -1259 14 -1311 3 -38 10 -90 16 -115 6 -24 13 -53 15 -63 21 -91 89 -228
150 -304 31 -38 124 -122 178 -160 63 -43 237 -132 260 -132 7 0 17 -4 23 -9
5 -4 43 -19 84 -32 41 -13 77 -26 80 -29 3 -3 14 -7 24 -8 29 -5 169 -76 221
-112 25 -17 78 -63 116 -102 71 -70 87 -75 90 -28 0 8 3 24 6 35 8 26 12 237
5 250 -3 5 -7 18 -8 30 -15 131 -97 348 -175 462 -36 53 -186 203 -202 203 -6
0 -18 6 -26 14 -9 7 -68 35 -131 61 -63 27 -118 51 -122 54 -6 5 -22 1056 -17
1146 0 17 1 35 1 40 0 6 -3 305 -7 664 -3 360 -8 658 -10 661 -4 7 -102 7
-109 0 -3 -4 -20 -1936 -17 -1997 1 -7 1 -19 2 -25 2 -49 -11 -432 -16 -436
-5 -5 -135 56 -145 69 -3 3 -14 9 -24 13 -11 4 -39 19 -62 34 -39 25 -47 36
-60 82 -5 17 -16 253 -14 290 1 14 1 30 1 35 -2 15 -9 890 -13 1527 -2 313 -5
568 -8 569 -24 5 -91 5 -100 -1z"/>
<path d="M6326 8258 c-14 -45 -24 -103 -20 -110 3 -5 1 -14 -4 -21 -6 -7 -9
-124 -8 -302 2 -262 4 -300 25 -395 13 -58 34 -134 48 -170 13 -36 25 -69 27
-75 2 -5 9 -23 15 -40 7 -16 14 -37 16 -45 2 -8 4 -17 5 -20 1 -3 2 -8 1 -12
0 -5 4 -8 9 -8 6 0 10 -7 10 -15 0 -8 4 -23 9 -33 6 -9 35 -71 67 -137 31 -66
66 -132 79 -146 l22 -27 13 22 c8 11 15 26 16 31 8 33 14 64 20 99 3 22 7 43
9 46 1 3 6 37 10 75 4 39 9 86 12 105 4 39 9 85 17 180 4 36 8 83 10 105 2 22
7 72 10 110 4 39 9 97 12 130 3 33 7 76 8 95 3 34 -9 57 -60 116 -11 12 -32
39 -49 60 -16 20 -35 42 -40 48 -6 6 -33 40 -60 76 -28 36 -53 67 -56 70 -3 3
-32 43 -64 90 -57 84 -81 110 -97 110 -5 0 -10 -6 -12 -12z"/>
<path d="M7293 8213 c-15 -21 -30 -40 -33 -43 -3 -3 -21 -30 -40 -60 -19 -30
-62 -89 -95 -130 -58 -74 -84 -103 -157 -184 -33 -36 -45 -67 -39 -100 6 -28
23 -268 25 -338 0 -27 3 -48 6 -48 3 0 6 -17 6 -37 1 -45 14 -175 19 -183 4
-6 13 -104 21 -220 11 -153 27 -188 66 -142 33 37 184 328 180 345 -1 4 3 7 8
7 5 0 9 3 8 8 -1 4 5 23 14 42 16 38 28 82 25 91 -1 3 3 13 10 21 11 12 37
102 48 163 2 11 9 45 15 75 21 107 25 167 23 365 -2 215 -5 259 -30 348 -19
69 -39 74 -80 20z"/>
<path d="M5226 8139 c-49 -14 -86 -59 -102 -125 -8 -36 -13 -305 -5 -319 3 -5
6 -23 7 -40 1 -35 12 -117 20 -158 3 -16 8 -38 10 -50 3 -22 22 -102 27 -122
2 -5 11 -37 21 -70 10 -33 19 -64 21 -70 7 -32 75 -185 112 -255 38 -70 117
-191 155 -236 51 -61 173 -175 226 -211 31 -21 59 -40 62 -43 11 -12 173 -85
210 -95 14 -4 33 -9 43 -12 20 -5 43 40 53 104 3 21 7 49 10 63 5 28 16 115
18 145 1 11 5 25 9 32 4 6 3 14 -2 17 -5 3 -6 21 -1 39 7 34 -5 54 -156 262
-56 78 -146 205 -184 260 -25 36 -50 71 -55 78 -29 34 -195 287 -195 298 0 12
63 -31 91 -63 9 -10 20 -18 25 -18 5 0 32 -22 59 -48 28 -26 82 -74 119 -107
77 -68 103 -91 172 -155 28 -25 70 -61 94 -80 25 -19 48 -38 51 -43 9 -13 54
-4 52 10 -2 7 -9 43 -18 80 -8 37 -17 79 -20 93 -3 14 -8 33 -11 42 -3 10 -7
29 -10 43 -2 14 -7 37 -10 53 -3 15 -8 47 -11 72 -5 50 -18 68 -51 75 -12 3
-32 8 -44 11 -13 3 -29 6 -35 6 -7 1 -13 5 -13 10 0 5 -4 7 -9 4 -5 -3 -64 22
-132 57 -221 112 -387 243 -495 391 -54 73 -71 85 -108 75z"/>
<path d="M8403 8107 c-21 -18 -49 -45 -64 -62 -15 -16 -37 -42 -50 -56 -46
-50 -64 -75 -83 -111 -11 -20 -25 -34 -31 -32 -6 3 -47 -17 -90 -44 -150 -91
-380 -194 -447 -201 -16 -2 -46 -44 -53 -74 -4 -18 -9 -39 -11 -47 -3 -8 -6
-26 -9 -40 -2 -14 -7 -36 -10 -50 -21 -97 -39 -191 -42 -227 -8 -67 7 -61 147
52 68 55 112 92 144 120 6 6 30 26 52 45 77 66 167 145 198 173 17 16 43 36
59 45 15 9 27 20 27 24 0 4 8 8 17 8 14 0 13 -3 -5 -23 -12 -13 -22 -26 -22
-29 0 -5 -135 -204 -186 -273 -8 -11 -53 -74 -100 -140 -46 -66 -91 -128 -99
-137 -8 -10 -27 -37 -42 -60 -15 -24 -31 -45 -34 -48 -3 -3 -27 -35 -53 -72
l-47 -68 6 -72 c4 -40 8 -98 11 -128 12 -162 20 -226 29 -240 6 -10 77 -7 110
5 40 15 160 70 165 75 3 3 23 17 44 30 41 25 137 102 178 143 52 52 128 144
128 155 0 7 4 12 8 12 7 0 16 12 69 99 53 88 156 323 167 383 3 13 5 23 6 23
2 0 3 5 25 90 8 33 17 74 20 90 3 17 8 37 11 46 2 9 6 36 9 60 2 24 7 57 10
73 8 40 13 100 21 247 7 145 1 166 -68 222 -63 50 -73 51 -115 14z"/>
<path d="M6338 6713 c-36 -42 -43 -110 -42 -383 0 -204 9 -384 20 -401 2 -4 6
-24 9 -45 3 -22 8 -46 11 -54 3 -8 8 -28 11 -45 2 -16 9 -34 14 -40 5 -5 9
-15 9 -21 0 -7 5 -25 12 -41 6 -15 12 -33 13 -39 3 -11 8 -23 60 -139 113
-250 182 -343 248 -333 18 2 22 10 22 41 0 20 -2 37 -6 37 -4 0 -7 101 -6 225
0 124 2 225 6 225 3 0 7 19 8 43 1 23 4 67 7 97 25 276 27 388 7 423 -8 15
-18 27 -22 27 -10 0 -59 51 -89 92 -15 21 -30 34 -34 31 -3 -3 -6 -2 -6 4 0 6
-16 31 -36 55 -19 23 -41 50 -49 59 -7 9 -35 50 -63 90 -27 41 -58 82 -69 92
-19 16 -20 16 -35 0z"/>
<path d="M7325 6718 c-11 -5 -41 -39 -65 -76 -64 -95 -129 -180 -241 -314 -71
-84 -97 -122 -94 -137 2 -12 7 -56 10 -99 6 -71 8 -99 21 -237 2 -27 6 -72 9
-100 2 -27 6 -77 9 -110 15 -159 25 -308 26 -412 1 -42 5 -63 13 -63 23 0 55
29 88 82 18 29 36 55 39 58 6 6 44 83 60 120 5 14 14 32 19 40 18 29 66 148
76 190 1 3 7 18 13 33 7 15 15 40 18 55 4 15 11 33 17 40 5 6 7 12 3 12 -3 0
-1 11 4 26 6 14 12 37 15 52 2 15 9 51 15 81 34 182 33 512 -4 706 -1 6 -9 22
-17 36 -11 22 -18 25 -34 17z"/>
<path d="M8358 6548 c-64 -72 -193 -205 -238 -243 -25 -21 -163 -110 -205
-133 -60 -31 -159 -73 -185 -77 -27 -4 -108 -40 -104 -47 3 -4 1 -8 -4 -8 -12
0 -42 -67 -56 -125 -4 -16 -12 -48 -18 -70 -5 -22 -12 -50 -14 -62 -3 -13 -15
-63 -28 -112 -33 -123 -25 -128 76 -48 75 60 165 137 214 182 17 17 59 53 91
82 33 29 75 66 94 84 19 17 49 43 67 57 18 13 51 42 75 63 39 36 57 47 57 34
0 -6 -121 -187 -130 -195 -3 -3 -16 -21 -28 -41 -19 -32 -62 -90 -92 -126 -5
-7 -10 -14 -10 -17 0 -3 -28 -44 -62 -92 -86 -118 -124 -172 -156 -219 -29
-43 -49 -69 -70 -91 -7 -8 -10 -14 -5 -14 4 0 4 -4 -2 -8 -15 -11 -36 -51 -42
-81 -7 -31 -6 -82 1 -176 4 -38 8 -104 10 -146 5 -94 16 -118 53 -115 16 2 41
8 56 15 16 6 30 11 33 11 12 0 189 93 192 101 2 5 8 9 14 9 24 0 172 129 252
220 70 80 179 266 237 405 27 65 70 200 85 266 3 13 6 29 8 34 2 6 6 28 11 50
4 22 10 49 12 60 2 11 6 34 8 50 2 17 6 44 8 60 13 91 21 174 31 337 l4 68
-74 70 c-41 38 -78 70 -83 70 -5 0 -43 -37 -83 -82z"/>
<path d="M5172 6583 c-27 -25 -40 -49 -43 -78 0 -5 -4 -14 -8 -20 -11 -14 -2
-420 9 -420 1 0 3 -13 4 -30 4 -38 14 -102 22 -135 3 -14 7 -38 10 -54 2 -17
7 -32 12 -35 4 -3 8 -15 10 -26 3 -26 2 -21 52 -160 35 -97 138 -313 160 -335
3 -3 21 -27 40 -55 19 -27 38 -51 42 -53 4 -2 8 -8 8 -12 0 -9 89 -100 151
-155 68 -61 290 -191 303 -178 3 3 6 2 6 -4 0 -11 28 -21 82 -29 23 -4 28 0
42 38 19 51 24 80 32 173 3 39 7 81 10 95 9 45 6 124 -4 150 -8 19 -205 300
-249 355 -32 39 -83 117 -83 125 0 6 -4 10 -8 10 -4 0 -27 26 -49 58 -56 78
-73 100 -105 132 -16 15 -28 36 -28 47 0 11 -22 51 -50 89 -27 38 -50 72 -50
77 0 13 32 -8 65 -42 93 -97 166 -169 195 -191 89 -67 169 -133 294 -243 66
-58 127 -98 138 -91 5 4 7 25 3 48 -6 47 -13 81 -15 81 -1 0 -3 9 -5 20 -2 11
-5 27 -8 35 -18 70 -30 145 -31 195 -1 33 -6 67 -11 76 -10 17 -75 51 -91 48
-5 -1 -11 -1 -14 0 -3 2 -20 4 -38 7 -61 8 -166 56 -262 120 -107 72 -151 109
-289 243 -161 158 -194 175 -249 124z"/>
<path d="M1906 6042 c-7 -12 0 -379 8 -417 14 -64 38 -161 43 -175 4 -8 7 -17
8 -20 5 -19 60 -116 69 -122 6 -5 7 -8 1 -8 -7 0 -7 -3 0 -8 6 -4 28 -29 50
-57 117 -146 231 -219 500 -320 157 -58 308 -125 313 -137 2 -5 8 -8 14 -8 22
0 137 -92 179 -142 68 -82 68 -82 75 -64 7 17 -2 355 -11 421 -11 89 -29 145
-77 245 -28 58 -54 107 -59 108 -5 2 -9 10 -9 18 0 8 -4 14 -10 14 -5 0 -10 5
-10 11 0 6 -6 16 -12 23 -7 7 -24 28 -38 46 -41 54 -128 133 -178 162 -38 23
-284 125 -317 133 -5 1 -23 7 -38 13 -16 7 -35 12 -43 12 -8 0 -14 4 -14 8 0
5 -6 9 -12 9 -7 0 -44 15 -83 33 -38 19 -73 34 -76 34 -17 2 -142 93 -193 141
-61 56 -71 62 -80 47z"/>
<path d="M11745 6027 c-11 -6 -25 -15 -31 -21 -6 -6 -31 -27 -55 -48 -24 -20
-55 -45 -69 -57 -14 -11 -30 -25 -37 -31 -17 -14 -151 -75 -188 -86 -68 -19
-260 -94 -330 -129 -134 -67 -153 -79 -233 -151 -139 -126 -218 -279 -267
-516 -9 -42 -19 -160 -20 -233 -1 -90 11 -135 37 -135 13 0 84 50 155 109 28
24 145 91 158 91 8 0 15 5 15 12 0 6 3 8 7 5 3 -4 16 -1 27 7 12 7 91 37 176
66 193 66 290 110 352 160 50 40 146 141 173 180 16 25 33 47 36 50 7 6 82
160 85 175 1 6 10 30 19 55 33 91 45 180 45 335 0 138 -2 155 -18 164 -11 6
-24 6 -37 -2z"/>
<path d="M4563 5796 c-18 -13 -54 -43 -81 -67 -82 -76 -128 -108 -210 -149
-44 -22 -84 -40 -89 -40 -5 0 -49 -15 -96 -34 -48 -19 -87 -31 -87 -28 0 4 -4
2 -8 -3 -4 -6 -45 -26 -92 -45 -47 -19 -86 -38 -88 -42 -2 -4 -9 -8 -15 -8
-23 0 -145 -80 -193 -127 -54 -52 -83 -89 -130 -168 -36 -59 -100 -207 -109
-250 -8 -39 -13 -60 -15 -60 -2 0 -6 -17 -14 -65 -11 -64 -6 -384 7 -396 2 -2
48 40 103 94 55 53 117 107 139 119 43 23 157 78 165 79 3 0 23 8 44 17 22 10
51 20 65 24 14 3 31 9 36 13 6 4 28 13 50 20 150 47 394 181 395 216 0 7 6 14
13 17 47 18 204 299 221 396 2 9 6 33 10 54 15 83 26 441 14 452 -2 2 -18 -7
-35 -19z"/>
<path d="M9092 5757 c-8 -27 -16 -124 -14 -162 12 -166 23 -229 59 -335 63
-186 170 -338 303 -430 19 -13 37 -27 40 -30 14 -16 173 -85 301 -131 142 -51
328 -132 339 -148 3 -4 15 -14 28 -20 25 -13 36 -22 109 -83 24 -21 49 -38 54
-38 17 0 57 49 62 78 5 28 1 178 -7 222 -24 145 -114 368 -190 474 -45 63
-121 142 -158 164 -15 9 -28 20 -28 25 0 4 -4 5 -10 2 -5 -3 -10 -2 -10 3 0 5
-37 26 -82 46 -116 53 -118 54 -163 69 -258 90 -424 168 -470 221 -16 19 -118
92 -137 99 -13 4 -19 -2 -26 -26z"/>
<path d="M6330 5189 c-6 -11 -13 -30 -16 -42 -15 -77 -20 -113 -30 -207 -6
-67 -6 -68 -1 -103 2 -15 0 -30 -5 -33 -4 -3 -7 -8 -4 -12 2 -4 7 -52 10 -107
7 -103 14 -171 22 -215 3 -14 6 -34 8 -45 2 -11 7 -36 11 -55 4 -19 9 -42 10
-50 1 -8 5 -22 8 -30 3 -8 11 -33 17 -55 6 -22 14 -47 17 -55 4 -8 7 -17 8
-20 13 -49 111 -275 130 -300 6 -8 19 -31 29 -51 39 -75 93 -120 122 -101 7 4
15 34 18 67 4 33 9 79 12 102 8 71 16 146 19 193 12 139 16 201 20 250 2 30 4
55 5 55 0 0 3 29 5 65 2 36 7 97 10 135 13 140 13 137 -25 176 -57 58 -169
184 -208 236 -20 26 -40 50 -44 51 -5 2 -8 7 -8 12 0 4 -21 42 -46 84 -48 80
-73 95 -94 55z"/>
<path d="M7307 5172 c-15 -9 -27 -20 -27 -25 0 -4 -5 -13 -10 -20 -19 -22 -59
-82 -71 -104 -7 -13 -21 -25 -31 -29 -11 -3 -26 -21 -34 -39 -7 -19 -59 -80
-113 -137 -89 -91 -100 -106 -96 -133 4 -32 14 -137 21 -220 2 -27 6 -70 9
-95 3 -25 5 -54 5 -65 -2 -29 -1 -36 4 -70 5 -28 11 -89 22 -225 5 -62 11
-127 18 -181 3 -20 7 -59 10 -85 4 -27 13 -55 21 -63 13 -14 17 -13 34 4 28
29 93 137 141 233 38 76 107 246 115 282 2 8 12 53 23 100 11 47 23 105 27
130 3 25 8 56 10 70 16 106 22 422 11 535 -7 78 -29 140 -51 148 -6 3 -23 -2
-38 -11z"/>
<path d="M8424 5085 c-16 -7 -37 -23 -46 -36 -33 -50 -136 -158 -204 -214 -26
-22 -62 -52 -78 -67 -17 -16 -34 -28 -38 -28 -4 0 -18 -9 -31 -20 -27 -24 -79
-55 -119 -73 -16 -6 -28 -15 -28 -19 0 -4 -5 -8 -12 -8 -6 0 -32 -13 -58 -30
-27 -17 -66 -32 -95 -35 -93 -12 -134 -41 -142 -105 -1 -14 -5 -41 -7 -60 -7
-67 -39 -200 -48 -200 -5 0 -7 -4 -4 -9 3 -5 2 -29 -3 -54 -15 -81 9 -85 91
-14 20 18 56 48 79 67 23 19 54 46 69 60 15 14 45 40 66 59 22 18 72 63 113
100 41 36 88 78 105 94 17 15 45 40 61 55 39 35 95 74 95 67 0 -8 -21 -49 -29
-55 -3 -3 -10 -12 -16 -21 -5 -8 -25 -38 -43 -65 -18 -27 -36 -60 -39 -74 -3
-14 -15 -31 -25 -38 -16 -11 -103 -120 -171 -213 -107 -146 -237 -332 -237
-339 0 -4 -4 -10 -8 -12 -13 -5 -57 -82 -53 -93 1 -5 4 -32 6 -60 2 -27 7 -88
11 -135 3 -47 8 -103 9 -125 2 -22 4 -40 5 -40 1 0 4 -11 6 -24 6 -31 6 -31
38 -37 50 -9 232 81 361 178 58 44 243 235 250 258 4 11 11 20 16 20 5 0 9 6
9 14 0 8 4 16 9 18 29 11 183 341 192 413 1 6 6 21 11 35 5 14 12 36 15 50 8
42 11 55 13 55 1 0 3 13 5 30 2 16 9 50 15 75 5 25 12 61 14 80 3 19 8 53 11
75 18 104 27 339 15 365 -38 83 -56 111 -74 123 -36 23 -51 25 -82 12z"/>
<path d="M5175 5047 c-26 -23 -48 -51 -50 -62 -2 -11 -4 -20 -5 -20 -17 0 -14
-211 5 -350 3 -22 8 -58 10 -80 8 -58 13 -90 15 -90 1 0 3 -11 5 -25 29 -210
157 -533 274 -695 53 -74 50 -70 131 -153 114 -117 239 -201 390 -262 30 -12
65 -27 78 -33 26 -12 40 -3 47 31 3 12 7 30 9 41 8 36 17 97 22 151 2 30 7 75
10 100 14 112 13 123 -17 161 -16 20 -29 41 -29 47 0 6 -4 12 -8 14 -4 2 -28
32 -52 68 -25 35 -50 71 -57 80 -7 8 -65 89 -129 180 -65 91 -121 167 -126
168 -4 2 -8 8 -8 12 0 5 -42 65 -94 134 -96 127 -122 166 -110 166 7 0 102
-77 135 -109 9 -9 33 -29 54 -46 22 -16 48 -39 60 -50 11 -11 52 -47 90 -80
39 -32 81 -69 94 -82 13 -12 37 -33 53 -45 17 -13 37 -30 46 -39 34 -33 155
-119 168 -119 18 0 17 9 0 62 -8 24 -17 54 -20 68 -3 14 -12 57 -20 95 -20 94
-27 132 -32 185 -5 48 -31 80 -65 80 -27 0 -117 26 -174 50 -98 41 -105 44
-105 52 0 4 -6 8 -13 8 -16 0 -183 125 -236 178 -22 22 -41 40 -41 38 0 -1
-42 39 -94 89 -149 143 -146 142 -211 82z"/>
<path d="M1911 4958 c-30 -80 -31 -283 -2 -386 6 -18 10 -35 10 -37 4 -42 46
-164 87 -250 32 -70 106 -176 157 -227 52 -52 205 -147 247 -154 5 -1 29 -10
95 -37 17 -6 33 -12 38 -13 4 -1 9 -3 12 -4 3 -1 10 -4 15 -5 6 -1 12 -4 15
-5 3 -1 8 -3 13 -5 4 -1 20 -7 35 -13 16 -7 34 -12 42 -12 8 0 17 -4 20 -10 3
-5 12 -10 20 -10 22 0 176 -75 230 -113 28 -19 74 -57 104 -85 59 -56 87 -70
105 -52 12 12 15 285 4 350 -39 222 -132 406 -276 547 -35 35 -68 63 -72 63
-5 0 -25 11 -44 24 -29 19 -90 46 -261 116 -70 29 -157 60 -165 60 -5 0 -37
13 -70 29 -33 16 -60 26 -60 23 0 -4 -4 -2 -8 3 -4 6 -27 23 -52 37 -45 26
-95 66 -154 123 -17 17 -41 38 -53 49 -22 18 -23 18 -32 -6z"/>
<path d="M11760 4943 c-20 -8 -100 -63 -125 -86 -74 -68 -214 -138 -410 -202
-111 -37 -290 -118 -334 -152 -42 -32 -156 -147 -187 -188 -59 -79 -130 -236
-155 -343 -31 -132 -42 -312 -25 -394 8 -36 38 -60 54 -43 42 42 141 125 170
142 70 43 151 83 167 83 8 0 15 5 15 10 0 6 6 10 13 10 7 0 42 11 78 25 35 14
71 27 79 29 8 2 31 9 50 17 19 7 38 12 43 11 4 -1 7 2 7 6 0 5 6 9 14 9 23 0
76 25 76 36 0 6 3 8 6 4 9 -9 91 34 150 78 57 43 171 162 180 188 3 9 10 17
15 17 6 0 7 5 4 10 -3 6 -2 10 3 10 8 0 31 43 81 150 11 25 31 88 45 140 22
85 24 114 23 264 -2 168 -5 181 -37 169z"/>
<path d="M9086 4724 c-3 -9 -4 -20 0 -25 3 -5 2 -9 -3 -9 -8 0 -7 -155 1 -177
3 -7 1 -13 -4 -13 -6 0 -6 -10 0 -25 5 -14 9 -36 9 -48 -2 -45 14 -132 43
-232 19 -65 91 -223 107 -235 3 -3 14 -17 23 -31 35 -55 132 -150 196 -192 69
-45 232 -122 272 -129 3 -1 35 -14 72 -29 36 -15 69 -25 72 -21 3 3 6 1 6 -5
0 -5 6 -10 13 -10 19 0 149 -53 177 -73 14 -9 32 -19 40 -22 8 -3 61 -45 117
-93 132 -112 137 -109 136 85 -1 144 -8 201 -42 316 -55 187 -114 302 -167
326 -17 8 -24 19 -24 38 0 40 -105 132 -220 193 -37 20 -183 76 -212 82 -9 2
-26 9 -38 15 -11 6 -25 8 -30 5 -6 -3 -10 -2 -10 4 0 5 -15 13 -32 16 -18 4
-55 18 -82 31 -28 13 -55 24 -62 24 -6 0 -17 7 -24 15 -7 8 -16 13 -20 10 -4
-3 -13 2 -20 10 -7 8 -18 15 -24 15 -7 0 -22 9 -34 20 -12 12 -22 18 -22 15 0
-6 -33 21 -111 92 -73 66 -95 78 -103 57z"/>
<path d="M4525 4678 c-22 -18 -53 -45 -70 -61 -16 -15 -42 -35 -57 -45 -16 -9
-28 -20 -28 -25 0 -4 -4 -5 -10 -2 -5 3 -10 2 -10 -3 0 -15 -128 -67 -390
-159 -64 -22 -199 -88 -256 -125 -60 -39 -156 -135 -191 -191 -14 -23 -30 -45
-35 -48 -5 -3 -9 -9 -9 -13 1 -3 -12 -32 -28 -64 -30 -59 -94 -232 -86 -232 2
0 0 -11 -5 -24 -38 -100 -30 -386 11 -394 8 -1 35 14 60 35 85 74 155 121 244
165 81 40 136 63 158 66 4 1 21 9 37 17 16 8 31 15 32 14 5 -4 143 43 203 69
161 69 323 226 404 389 32 64 52 110 56 128 2 6 8 30 15 55 7 25 14 59 17 75
2 17 7 41 9 55 10 48 13 305 4 328 -13 30 -28 28 -75 -10z"/>
<path d="M1899 3914 c-1 -5 -3 -22 -5 -39 -3 -16 -7 -95 -10 -175 -7 -160 0
-204 43 -266 17 -26 26 -50 24 -72 -2 -37 19 -104 48 -153 11 -19 28 -49 37
-66 9 -18 20 -33 25 -33 5 0 9 -6 9 -13 0 -19 127 -144 190 -187 78 -53 147
-86 284 -137 67 -24 126 -45 131 -47 59 -18 228 -96 233 -108 2 -5 10 -8 18
-8 8 0 22 -12 31 -28 27 -48 180 -151 203 -137 10 6 7 313 -4 390 -32 232
-191 478 -393 609 -38 25 -76 46 -84 48 -8 2 -16 6 -19 9 -6 7 -159 69 -181
73 -8 2 -27 9 -44 15 -16 7 -37 14 -45 16 -8 2 -16 4 -17 5 -2 2 -6 3 -10 5
-92 25 -281 137 -358 211 -72 69 -105 96 -106 88z"/>
<path d="M11715 3860 c-38 -36 -74 -70 -80 -76 -31 -35 -138 -104 -185 -119
-3 -1 -16 -6 -30 -13 -14 -6 -59 -23 -100 -37 -41 -15 -88 -32 -105 -38 -16
-7 -32 -12 -35 -13 -3 0 -16 -5 -30 -11 -14 -6 -29 -12 -35 -14 -43 -14 -209
-108 -258 -147 -61 -46 -74 -58 -130 -121 -34 -39 -107 -157 -107 -174 0 -7
-4 -17 -8 -22 -25 -29 -75 -221 -88 -335 -12 -115 -8 -237 11 -282 13 -33 19
-30 155 83 139 116 197 146 415 222 229 79 340 140 444 247 61 62 141 187 166
260 1 3 7 17 13 32 13 32 49 150 58 193 11 50 16 347 7 390 l-9 40 -69 -65z"/>
<path d="M6336 3648 c-14 -22 -22 -47 -31 -94 -2 -10 -4 -19 -5 -19 -6 0 -20
-191 -21 -280 0 -79 9 -207 21 -275 5 -30 12 -70 15 -89 3 -19 8 -37 10 -41 2
-4 7 -20 9 -37 6 -30 42 -154 53 -183 4 -8 7 -17 8 -20 1 -3 5 -14 9 -25 4
-11 13 -33 18 -50 13 -36 109 -238 117 -245 3 -3 12 -17 19 -31 25 -48 88
-124 102 -124 10 0 16 11 16 30 1 17 3 31 4 33 1 1 4 16 5 32 1 17 3 31 5 33
1 1 3 25 5 52 2 28 4 50 5 50 1 0 4 23 6 50 2 28 6 77 9 110 10 111 13 150 20
235 3 47 8 108 10 135 3 28 7 88 10 135 3 47 8 100 9 118 2 18 -2 36 -8 40 -7
4 -39 40 -72 81 -32 41 -83 104 -113 140 -29 36 -84 110 -123 164 -38 53 -75
97 -83 97 -8 0 -21 -10 -29 -22z"/>
<path d="M4561 3636 c-19 -14 -57 -47 -86 -74 -69 -65 -130 -106 -217 -146
-98 -44 -130 -57 -156 -59 -12 -1 -22 -6 -22 -11 0 -5 -3 -6 -7 -3 -3 4 -11 2
-18 -3 -6 -5 -20 -11 -31 -13 -10 -2 -32 -9 -47 -15 -16 -7 -31 -12 -33 -12
-5 0 -68 -28 -144 -63 -25 -11 -48 -25 -52 -31 -4 -6 -8 -8 -8 -3 0 18 -124
-80 -163 -129 -23 -30 -45 -54 -49 -54 -5 0 -8 -5 -8 -11 0 -6 -13 -30 -30
-54 -16 -24 -30 -47 -30 -51 0 -4 -6 -15 -14 -23 -7 -9 -29 -54 -49 -101 -31
-75 -40 -107 -53 -195 -2 -11 -6 -38 -9 -60 -4 -22 -7 -98 -7 -168 -1 -175 17
-192 110 -107 40 37 54 44 74 41 4 0 31 23 60 52 60 59 132 98 278 147 36 12
74 26 85 31 11 4 49 19 85 32 86 32 163 68 172 81 4 6 8 7 8 3 0 -13 112 72
154 117 46 49 126 166 126 183 0 7 4 13 9 13 7 0 16 17 36 70 1 3 7 19 14 35
28 66 48 137 57 205 10 73 15 356 7 378 l-9 22 -33 -24z"/>
<path d="M7240 3565 c-36 -52 -68 -95 -72 -95 -5 0 -8 -7 -8 -15 0 -8 -4 -15
-8 -15 -5 0 -22 -19 -39 -42 -17 -24 -46 -59 -64 -79 -118 -126 -125 -136
-123 -160 1 -13 5 -67 9 -119 4 -52 9 -113 11 -135 2 -22 6 -69 8 -105 3 -36
8 -92 11 -125 4 -33 8 -85 10 -115 2 -30 6 -66 9 -80 3 -14 8 -56 11 -95 13
-159 31 -245 50 -245 16 0 74 90 136 210 24 47 49 88 54 92 6 4 7 8 2 8 -4 0
4 23 18 50 14 28 23 50 20 50 -4 0 1 12 9 28 14 26 26 56 32 77 1 6 12 44 24
85 11 41 23 89 26 105 5 37 12 70 14 70 1 0 3 18 5 40 2 22 7 67 11 100 8 70
8 353 0 438 -6 67 -23 137 -38 155 -26 31 -53 12 -118 -83z"/>
<path d="M9091 3633 c-14 -28 -22 -91 -21 -178 0 -99 6 -140 25 -195 8 -23 15
-56 15 -72 0 -16 7 -44 15 -64 8 -19 15 -38 15 -42 1 -4 8 -23 16 -42 8 -19
16 -37 16 -40 1 -3 8 -17 17 -32 9 -14 31 -52 49 -83 28 -48 128 -157 184
-200 41 -33 313 -170 326 -165 5 2 143 -52 224 -87 91 -39 219 -113 256 -148
15 -14 29 -25 32 -25 3 0 14 -16 24 -35 11 -19 25 -35 32 -35 12 0 31 24 33
43 1 4 1 8 2 10 15 45 17 191 5 272 -4 28 -9 59 -11 70 -1 11 -8 40 -15 65 -7
25 -14 54 -16 65 -13 102 -41 180 -82 232 -51 64 -157 167 -207 201 -22 15
-49 35 -59 45 -11 9 -25 17 -32 17 -7 0 -14 4 -16 8 -3 9 -134 72 -149 72 -5
0 -17 4 -27 9 -23 13 -131 46 -221 67 -58 13 -82 24 -108 51 -19 18 -39 33
-46 33 -7 0 -26 13 -43 28 -18 15 -45 38 -60 51 -16 14 -54 46 -85 73 -61 52
-74 57 -88 31z"/>
<path d="M5170 3529 c-22 -22 -41 -49 -41 -60 -3 -45 -5 -55 -10 -64 -6 -12
-2 -252 5 -310 12 -95 19 -151 20 -172 0 -13 4 -23 8 -23 3 0 5 -8 4 -17 -2
-9 3 -37 10 -60 7 -24 14 -47 14 -51 3 -21 13 -61 23 -87 7 -16 12 -32 13 -35
1 -3 5 -20 9 -38 4 -18 12 -35 16 -38 5 -3 9 -12 9 -20 0 -29 103 -230 169
-329 75 -113 205 -250 301 -317 67 -47 194 -115 227 -121 10 -2 27 -7 38 -11
11 -4 29 -11 40 -15 47 -17 57 -9 60 44 2 28 6 75 10 105 3 30 8 71 10 90 3
19 7 51 10 70 18 130 24 109 -69 243 -47 67 -92 131 -100 142 -8 11 -42 58
-75 105 -33 47 -65 90 -70 97 -6 7 -11 16 -11 22 0 5 -4 11 -8 13 -11 4 -182
257 -182 268 0 4 -4 10 -8 12 -11 4 -55 78 -47 78 12 0 90 -58 119 -89 17 -17
33 -31 37 -31 5 0 23 -15 41 -33 32 -32 117 -107 266 -235 105 -91 181 -144
193 -136 5 3 7 8 5 12 -4 6 -73 309 -82 357 -14 79 -40 125 -71 125 -24 0
-164 49 -218 76 -80 41 -110 57 -115 63 -3 3 -34 26 -70 51 -81 56 -101 73
-225 191 -146 141 -178 169 -197 169 -10 0 -35 -18 -58 -41z"/>
<path d="M8312 3445 c-142 -139 -164 -159 -212 -195 -18 -14 -39 -31 -46 -37
-7 -7 -17 -13 -22 -13 -6 0 -12 -4 -14 -9 -5 -15 -188 -108 -258 -131 -143
-47 -176 -74 -185 -152 -11 -91 -61 -280 -85 -323 -21 -37 -26 -80 -12 -89 15
-9 80 38 174 129 157 149 291 271 367 331 13 10 34 29 47 42 13 12 25 22 28
22 3 0 22 16 43 35 21 19 45 35 53 35 9 0 11 -3 5 -8 -6 -4 -23 -27 -39 -52
-29 -44 -162 -227 -191 -263 -8 -9 -15 -19 -15 -22 0 -3 -15 -24 -32 -48 -18
-24 -40 -54 -48 -67 -8 -12 -24 -35 -35 -49 -29 -37 -98 -137 -112 -162 -6
-12 -15 -24 -20 -28 -12 -9 -84 -120 -110 -170 -23 -45 -27 -72 -20 -126 10
-68 19 -168 21 -232 2 -37 6 -79 10 -91 7 -21 12 -23 44 -17 44 7 322 142 322
155 0 6 7 10 15 10 36 0 315 309 315 349 0 5 7 12 16 15 8 3 13 10 10 15 -4 5
1 16 9 24 8 9 15 18 15 21 0 3 17 42 39 88 59 126 79 180 112 298 15 52 13 45
22 90 4 19 10 46 13 60 11 52 22 119 30 178 2 17 6 49 9 70 6 39 12 115 15
192 3 56 -8 117 -25 151 -18 33 -91 99 -111 99 -8 0 -72 -56 -142 -125z"/>
<path d="M1899 2855 c-9 -2 -13 -307 -5 -350 4 -22 9 -54 11 -72 5 -36 39
-161 58 -213 19 -53 65 -138 109 -205 43 -64 149 -171 180 -181 10 -3 18 -10
18 -15 0 -6 4 -8 9 -4 5 3 12 1 16 -5 7 -11 121 -67 175 -85 3 -1 12 -4 20 -7
8 -4 78 -30 155 -58 213 -79 307 -133 411 -232 63 -61 93 -82 102 -73 9 9 8
325 -1 386 -31 212 -155 450 -293 565 -45 37 -208 124 -233 124 -6 0 -11 4
-11 8 0 5 -6 9 -12 9 -10 1 -159 57 -323 123 -11 4 -24 9 -30 10 -5 2 -27 14
-47 26 -21 13 -42 24 -48 24 -5 0 -10 5 -10 11 0 5 -4 7 -10 4 -5 -3 -10 -2
-10 4 0 5 -9 12 -20 16 -11 3 -62 48 -115 99 -52 50 -96 92 -96 91z"/>
<path d="M11692 2746 c-29 -25 -67 -55 -85 -67 -17 -13 -34 -26 -37 -29 -5 -6
-143 -74 -185 -92 -11 -4 -65 -23 -120 -42 -184 -62 -269 -98 -335 -141 -63
-42 -172 -144 -207 -195 -10 -14 -25 -33 -35 -44 -43 -47 -125 -246 -151 -366
-26 -120 -27 -300 -2 -362 9 -22 38 -23 59 -3 8 8 17 15 21 15 3 0 20 14 38
30 40 38 147 109 207 138 41 19 105 45 105 42 0 0 32 11 70 26 39 14 93 33
120 41 28 8 56 20 63 25 6 6 12 8 12 4 0 -3 17 3 37 14 21 11 43 20 50 20 7 0
13 4 13 8 0 5 16 14 35 22 19 8 35 17 35 21 0 4 9 10 20 14 65 21 253 255 298
371 10 27 22 58 27 69 10 26 11 26 34 115 14 56 19 112 20 226 1 82 -1 158 -5
167 -11 29 -48 19 -102 -27z"/>
<path d="M4564 2567 c-19 -20 -86 -80 -159 -142 -16 -14 -36 -25 -42 -25 -7 0
-13 -4 -13 -8 0 -9 -148 -81 -179 -87 -11 -2 -29 -8 -40 -14 -11 -6 -73 -30
-138 -52 -204 -72 -265 -106 -386 -219 -87 -81 -206 -269 -222 -350 -2 -10 -8
-27 -13 -37 -12 -22 -25 -103 -26 -165 -1 -27 -4 -48 -7 -48 -8 0 -6 -277 3
-285 6 -6 68 21 78 35 28 38 280 194 280 173 0 -4 4 -3 8 2 8 13 246 106 273
108 11 1 19 5 19 9 0 4 6 8 13 8 20 0 192 85 242 120 24 17 46 30 49 30 9 0
46 39 46 48 0 4 24 37 53 73 48 60 61 79 91 134 6 11 15 23 19 26 5 3 8 9 8
13 -1 10 2 23 16 56 6 14 11 27 12 30 0 3 8 29 17 59 17 58 20 72 30 136 12
76 13 100 13 210 0 190 -4 204 -45 162z"/>
<path d="M9093 2577 c-6 -6 -11 -21 -11 -32 -2 -30 -4 -230 -2 -230 3 0 9 -39
14 -85 7 -59 28 -169 42 -213 6 -21 22 -60 47 -117 26 -59 104 -169 152 -216
112 -110 215 -164 540 -284 11 -4 22 -7 25 -7 3 0 16 -6 30 -13 14 -8 27 -15
30 -15 17 -2 170 -80 170 -87 0 -4 6 -8 14 -8 8 0 42 -27 77 -60 34 -33 66
-60 70 -60 4 0 9 -5 11 -11 8 -24 45 10 56 51 13 51 8 237 -7 310 -7 30 -15
66 -17 79 -3 14 -7 28 -10 33 -3 4 -7 16 -9 25 -6 34 -48 138 -73 183 -67 122
-172 238 -254 281 -13 6 -25 15 -28 18 -5 7 -132 69 -165 81 -11 5 -40 17 -65
27 -25 11 -65 26 -90 33 -25 8 -54 20 -65 27 -11 7 -26 13 -33 13 -22 0 -202
89 -262 130 -30 21 -83 65 -116 99 -46 45 -64 58 -71 48z"/>
<path d="M6329 2143 c-22 -58 -51 -288 -51 -408 0 -38 12 -204 16 -224 3 -14
7 -42 10 -61 3 -19 12 -66 21 -105 8 -38 18 -80 20 -92 3 -12 10 -35 16 -50 6
-16 10 -28 9 -28 -1 0 5 -22 13 -50 63 -205 167 -413 239 -478 29 -25 60 -36
56 -19 -2 6 7 86 18 167 5 39 16 195 18 262 0 29 3 53 6 53 3 0 5 15 6 33 1
17 4 68 8 112 4 44 9 116 12 160 2 44 7 103 10 130 9 93 9 110 -1 121 -5 7
-19 22 -29 35 -11 13 -54 65 -96 114 -42 50 -96 117 -121 150 -24 33 -47 62
-51 63 -5 2 -8 9 -8 15 0 7 -14 28 -30 47 -16 19 -30 38 -30 41 0 4 -11 14
-25 23 -25 16 -26 16 -36 -11z"/>
<path d="M7299 2113 c-19 -21 -41 -48 -49 -59 -8 -12 -34 -48 -56 -80 -23 -33
-50 -69 -60 -80 -11 -12 -32 -39 -49 -60 -16 -21 -58 -68 -93 -104 l-63 -65 5
-80 c3 -44 8 -114 11 -155 4 -41 8 -97 10 -125 2 -27 4 -50 5 -50 2 0 12 -126
14 -177 0 -21 3 -38 6 -38 3 0 5 -17 6 -38 0 -33 6 -90 20 -207 2 -22 6 -60 8
-85 3 -25 5 -45 6 -45 1 0 3 -8 5 -18 5 -25 11 -31 29 -24 15 6 73 92 76 112
1 6 7 17 14 25 29 35 157 307 171 365 1 6 5 17 8 25 4 8 8 24 10 35 1 11 5 25
8 30 4 6 10 28 14 50 5 22 10 47 11 55 2 8 6 33 9 55 2 22 7 51 10 64 15 75
22 450 11 561 -8 77 -29 144 -47 148 -8 1 -31 -14 -50 -35z"/>
<path d="M8373 2002 c-161 -221 -392 -389 -662 -484 -108 -37 -131 -52 -126
-78 2 -11 1 -20 -3 -20 -4 0 -8 -12 -9 -28 -3 -28 -10 -67 -13 -67 -1 0 -3 -9
-4 -20 -2 -11 -8 -47 -15 -80 -18 -92 -24 -138 -22 -167 1 -17 20 -21 31 -7 3
3 46 37 95 74 50 38 92 71 95 74 3 4 32 29 65 56 33 28 65 55 71 60 29 27 127
109 189 159 39 30 77 62 85 69 30 27 37 27 32 2 -2 -14 -8 -25 -13 -25 -5 0
-9 -4 -9 -10 0 -7 -95 -153 -127 -195 -4 -6 -24 -33 -43 -60 -19 -28 -38 -51
-42 -53 -4 -2 -8 -10 -8 -18 0 -8 -3 -14 -7 -14 -5 0 -19 -17 -33 -38 -14 -20
-32 -42 -40 -49 -8 -7 -10 -13 -5 -13 6 0 6 -3 0 -8 -6 -4 -50 -56 -99 -115
-202 -248 -423 -436 -610 -522 -83 -38 -107 -46 -156 -53 -74 -10 -292 -5
-340 8 -51 14 -173 70 -178 82 -2 4 -10 8 -18 8 -8 0 -14 5 -14 10 0 6 -6 10
-13 10 -7 0 -22 8 -33 17 -10 10 -37 31 -59 48 -72 53 -232 206 -325 310 -43
48 -193 234 -235 290 -16 22 -33 42 -37 43 -4 2 -8 10 -8 18 0 8 -3 14 -8 14
-4 0 -18 18 -32 40 -14 22 -28 40 -32 40 -5 0 -8 5 -8 10 0 10 -78 129 -91
140 -11 9 -47 90 -41 90 10 0 244 -185 286 -226 86 -82 333 -274 355 -274 16
0 11 80 -13 175 -17 70 -27 126 -31 177 -7 78 -13 82 -190 138 -108 34 -202
83 -298 155 -94 72 -218 190 -281 268 -62 78 -77 89 -111 83 -36 -8 -69 -38
-103 -95 -23 -39 -26 -55 -25 -130 1 -149 15 -262 59 -471 36 -173 94 -351
133 -405 24 -34 67 -108 105 -180 12 -22 79 -115 111 -154 33 -40 163 -167
218 -215 62 -52 243 -176 258 -176 6 0 17 -7 26 -15 8 -9 28 -19 44 -22 16 -3
29 -9 29 -14 0 -5 3 -8 8 -7 4 1 29 -8 56 -20 28 -13 61 -25 75 -29 14 -3 31
-9 36 -13 22 -15 238 -77 300 -86 44 -6 282 -5 305 2 25 7 46 8 175 3 83 -3
114 1 245 36 8 2 35 11 60 20 25 9 53 18 63 20 23 5 225 95 262 117 17 10 47
25 68 34 20 9 37 20 37 25 0 5 5 9 11 9 20 0 174 114 248 185 40 38 96 99 124
135 28 36 54 67 57 70 3 3 21 30 40 60 19 30 38 57 42 58 5 2 8 8 8 14 0 5 15
35 33 66 68 117 185 420 171 443 -3 5 -1 9 4 9 5 0 9 6 9 13 0 6 3 24 7 40 22
97 39 207 40 260 1 15 3 27 6 27 8 0 5 201 -4 248 -11 60 -89 139 -146 148 -8
2 -34 -23 -57 -54z"/>
<path d="M11746 1719 c-22 -13 -57 -42 -98 -82 -44 -42 -134 -100 -208 -135
-80 -37 -180 -73 -180 -64 0 4 -4 2 -8 -4 -4 -6 -32 -19 -62 -29 -30 -10 -71
-25 -90 -33 -19 -9 -38 -16 -42 -16 -3 -1 -10 -4 -14 -8 -4 -5 -16 -8 -26 -8
-10 0 -18 -4 -18 -10 0 -5 -6 -10 -14 -10 -30 0 -115 -58 -182 -124 -146 -145
-245 -345 -269 -541 -4 -27 -8 -61 -11 -75 -6 -36 -6 -201 0 -229 13 -58 48
-63 102 -14 164 149 191 164 427 244 48 16 117 42 152 58 36 17 65 28 65 25 0
-2 22 10 49 26 26 17 53 30 60 30 6 0 11 4 11 8 0 5 18 18 40 31 60 34 226
202 213 215 -4 3 -2 6 4 6 5 0 20 22 33 50 13 27 28 50 33 50 6 0 8 3 4 6 -3
4 0 19 8 34 7 14 26 69 41 121 26 88 28 106 29 289 0 208 -2 216 -49 189z"/>
<path d="M1914 1706 c-15 -12 -18 -29 -18 -132 -1 -139 9 -259 23 -297 6 -15
9 -27 6 -27 -13 0 81 -222 97 -228 4 -2 8 -8 8 -14 0 -33 171 -228 221 -251 8
-4 32 -18 54 -32 22 -14 47 -28 55 -31 8 -4 35 -15 60 -26 25 -11 112 -45 194
-74 144 -52 221 -87 316 -142 48 -28 60 -38 119 -89 51 -45 101 -69 111 -52 8
12 5 305 -4 364 -17 120 -55 221 -127 342 -63 104 -142 187 -239 253 -71 48
-198 113 -245 126 -5 1 -41 14 -80 29 -38 14 -77 28 -87 30 -32 7 -157 63
-222 99 -36 20 -92 61 -123 90 -75 69 -95 79 -119 62z"/>
<path d="M4548 1476 c-13 -13 -30 -32 -39 -42 -62 -73 -223 -165 -419 -239
-25 -9 -52 -19 -60 -21 -38 -9 -206 -77 -211 -86 -3 -5 -9 -9 -13 -8 -11 2
-66 -24 -66 -32 0 -5 -5 -8 -11 -8 -35 0 -158 -112 -213 -195 -136 -203 -181
-360 -179 -620 1 -151 5 -187 18 -192 6 -1 42 27 80 63 81 76 172 138 264 179
67 29 264 103 292 110 33 7 186 80 239 114 47 30 152 127 185 172 29 40 76
121 100 174 15 33 34 72 42 88 8 15 11 27 8 27 -3 0 -1 9 4 19 9 17 22 88 25
146 1 11 5 25 8 30 4 6 3 17 -2 24 -4 8 -5 25 -1 40 9 33 6 196 -3 238 -10 44
-20 48 -48 19z"/>
<path d="M9096 1473 c-19 -65 -25 -206 -11 -299 4 -27 9 -60 10 -74 1 -14 5
-32 7 -40 3 -8 15 -49 28 -90 69 -230 218 -419 400 -508 14 -6 32 -16 40 -22
14 -8 143 -60 315 -125 97 -36 183 -76 222 -102 18 -12 33 -20 33 -18 0 6 38
-26 118 -102 37 -35 70 -63 75 -63 20 0 30 65 30 200 0 80 -2 157 -5 172 -4
14 -10 41 -14 60 -4 18 -8 35 -9 38 -6 30 -54 158 -77 203 -31 63 -86 150
-114 184 -11 12 -26 30 -35 40 -24 27 -81 76 -114 96 -48 29 -210 105 -239
113 -14 3 -26 9 -26 13 0 4 -8 7 -17 8 -32 2 -256 93 -333 134 -69 38 -110 69
-214 163 -44 40 -62 45 -70 19z"/>
</g>
</svg>
