<svg xmlns='http://www.w3.org/2000/svg' viewBox='0 0 300 88'>
<rect height="100%" width="100%" stroke-width="4" stroke="#fe6900" fill-opacity="0"/>
<g fill="#fefefe">
<path d="m49.52,75.49c-7.297,-2.06 -8.11,-11.96 -1.25,-15.14c1.59,-0.75 4.11,-0.93 5.99,-0.41c1.53,0.43 3.39,1.94 4.4,3.56c1.19,1.94 1.42,5.18 0.46,7.38c-0.72,1.65 -2.66,3.62 -4.199,4.29c-1.45,0.61 -3.88,0.75 -5.42,0.32l0.02,0l-0.0,0zm4.84,-2.08c2.66,-1.1 4.17,-4.52 3.33,-7.49999c-1.27,-4.63 -7.07,-6.05 -10.54,-2.61c-1.16,1.16 -1.68,2.55 -1.68,4.49c0,4.63 4.49,7.47 8.89,5.62l0,0l0,-0.0z"/>
<path d="m99.24,75.31c-1.22,-0.55 -2.75,-2.08 -2.75,-2.75c0,-0.2 0.29,-0.49 0.67,-0.67c0.58,-0.26 0.78,-0.17 1.59,0.78c1.1,1.33 2.26,1.68 3.47,1.04c1.01,-0.52 1.59,-1.91 1.25,-2.87c-0.26,-0.67 -3.01,-3.33 -4.31,-4.199c-0.87,-0.58 -1.795,-2.4 -1.795,-3.56c0,-1.94 1.65,-3.45 3.76,-3.45c1.36,0 2.11,0.32 3.27,1.39c0.93,0.898 0.98,1.25 0.17,1.74c-0.52,0.32 -0.69,0.26 -1.62,-0.52c-1.27,-1.13 -2.49,-1.1 -3.39,0.09c-0.58,0.78 -0.58,0.81 -0.06,1.74c0.26,0.49 1.48,1.68 2.64,2.58c1.33,1.04 2.37,2.11 2.75,2.84c1.19,2.35 0.43,4.78 -1.82,5.79c-1.53,0.69 -2.35,0.72 -3.82,0.03l-0.01,0l0.01,-0.0z"/>
<path d="m23.81,67.61l0,-7.67l0.87,0l0.87,0l0,3.19l0,3.19l3.76,0l3.76,0l0,-3.19l0,-3.19l0.87,0l0.87,0l0,7.67l0,7.67l-0.87,0l-0.87,0l0,-3.62l0,-3.62l-3.76,0l-3.76,0l0,3.62l0,3.62l-0.87,0l-0.87,0l0,-7.67z"/>
<path d="m68.69,67.58l0,-7.7l3.42,0.12c3.098,0.09 3.53,0.14 4.49,0.81c1.27,0.87 1.65,1.65 1.65,3.36c0,2.29 -1.27,3.65 -3.71,4.05l-1.19,0.17l2.35,3.098c1.3,1.68 2.49,3.24 2.64,3.45c0.2,0.26 0,0.35 -0.84,0.35c-1.1,0 -1.22,-0.12 -3.82,-3.47c-1.48,-1.91 -2.81,-3.47 -2.95,-3.47c-0.17,0 -0.29,1.42 -0.29,3.47l0,3.47l-0.87,0l-0.87,0l0,-7.7l-0.01,-0.01l0,0.0zm7.12,-1.94c0.75,-0.87 0.898,-2.08 0.32,-2.84c-0.64,-0.84 -1.59,-1.13 -3.65,-1.13l-2.06,0l0,2.49l0,2.49l2.35,-0.12c2.14,-0.09 2.4,-0.17 3.04,-0.898l0,0.01l0,-0.0z"/>
<path d="m86.93,67.61l0,-7.67l1.01,0l1.01,0l0,7.67l0,7.67l-1.01,0l-1.01,0l0,-7.67z"/>
<path d="m114.44,67.61l0,-7.67l0.87,0l0.87,0l0,3.19l0,3.19l3.76,0l3.76,0l0,-3.19l0,-3.19l0.87,0l0.87,0l0,7.67l0,7.67l-0.87,0l-0.87,0l0,-3.62l0,-3.62l-3.76,0l-3.76,0l0,3.62l0,3.62l-0.87,0l-0.87,0l0,-7.67z"/>
<path d="m134.71,67.61c0,-5.97 0.09,-7.67 0.38,-7.64c0.17,0 2.49,2.49 5.13,5.53l4.78,5.53l0.09,-5.53l0.06,-5.56l0.87,0l0.87,0l0,7.67c0,4.23 -0.12,7.67 -0.26,7.67c-0.14,0 -2.37,-2.43 -4.98,-5.42l-4.75,-5.42l-0.09,5.42l-0.06,5.42l-1.01,0l-1.01,0l0,-7.67l-0.02,0z"/>
<path d="m156.14,67.61l0,-7.67l0.87,0l0.87,0l0,7.67l0,7.67l-0.87,0l-0.87,0l0,-7.67z"/>
<path d="m178.73,67.58l0,-7.7l3.42,0.12c3.68,0.09 4.66,0.41 5.65,1.71c0.81,1.1 0.93,3.07 0.29,4.31c-0.81,1.53 -2.08,2.11 -5.07,2.26l-2.55,0.12l0,3.45l0,3.45l-0.87,0l-0.87,0l0,-7.7l0,-0.02zm6.63,-1.42c1.42,-0.72 1.71,-2.78 0.55,-3.79c-0.43,-0.43 -1.16,-0.58 -3.01,-0.67l-2.43,-0.09l0,2.49l0,2.49l2.03,0c1.25,0 2.37,-0.17 2.87,-0.43l-0.01,0z"/>
<path d="m197.26,67.61l0,-7.67l0.87,0l0.87,0l0,6.81l0,6.81l2.896,0l2.896,0l0,0.87l0,0.87l-3.76,0l-3.76,0l0,-7.67l-0.01,-0.02l-0.0,0z"/>
<path d="m211.74,75.08c0,-0.58 7.09,-15.14 7.36,-15.14c0.26,0.03 1.795,3.16 6.43,13.26l0.96,2.08l-0.93,0c-0.898,0 -1.01,-0.12 -2.17,-2.46l-1.22,-2.46l-3.13,0l-3.13,0l-1.22,2.46c-1.13,2.26 -1.27,2.46 -2.08,2.46c-0.46,0 -0.87,-0.09 -0.87,-0.2zm9.56,-6.57c0,-0.06 -0.52,-1.19 -1.13,-2.52l-1.13,-2.43l-0.49,1.16c-0.29,0.64 -0.81,1.77 -1.19,2.55l-0.69,1.36l2.32,0c1.27,0 2.32,-0.06 2.32,-0.12l-0.01,0z"/>
<path d="m239.57,74.65c-0.14,-0.38 -1.56,-3.71 -3.19,-7.41c-1.62,-3.74 -2.92,-6.89 -2.92,-7.04c0,-0.17 0.41,-0.26 0.93,-0.2c0.87,0.09 0.96,0.2 3.19,5.44c1.27,2.95 2.37,5.44 2.49,5.56c0.12,0.12 1.33,-2.32 2.66,-5.42l2.46,-5.65l0.93,0c0.52,0 0.96,0.06 0.96,0.09c0,0.52 -6.6,15.09 -6.89,15.2c-0.17,0.06 -0.46,-0.2 -0.61,-0.58l-0.01,0.01z"/>
<path d="m255.18,67.58c0,-6.37 0.06,-7.67 0.41,-7.59c0.2,0.06 2.52,2.55 5.13,5.56l4.75,5.47l0.09,-5.53l0.06,-5.56l1.01,0l1.01,0l0,7.67c0,6.37 -0.06,7.67 -0.41,7.67c-0.23,0 -2.58,-2.49 -5.21,-5.5l-4.81,-5.53l0,5.53l0,5.5l-1.01,0l-1.01,0l0,-7.7l-0.01,0.01z"/>
<path d="m276.598,67.61l0,-7.67l0.87,0l0.87,0l0,7.67l0,7.67l-0.87,0l-0.87,0l0,-7.67z"/>
<path d="m28.93,50.06c-10.34,-1.19 -17.26,-9.64 -16.62,-20.299c0.29,-4.81 1.97,-8.54 5.299,-11.87c6.86,-6.89 18.53,-7.64 26.53,-1.74c1.53,1.13 3.42,3.19 3.42,3.74c0,0.29 -2.4,2.11 -2.78,2.11c-0.12,0 -1.04,-0.78 -2.03,-1.74c-7.99,-7.67 -22.09,-4.43 -25.57,5.88c-3.65,10.71 4.46,21.11 15.898,20.39c3.996,-0.26 7.18,-1.65 10.02,-4.31c0.81,-0.75 1.56,-1.39 1.68,-1.39c0.38,0 2.75,1.88 2.78,2.2c0,0.64 -3.68,3.76 -5.7,4.84c-3.59,1.88 -8.51,2.72 -12.92,2.2l-0.01,-0.01l0.0,-0.0z"/>
<path d="m54.79,31.13l0,-18.098l5.59,0c7.297,0 9.96,0.32 12.28,1.45c4.63,2.29 6.31,7.91 3.88,12.86c-1.42,2.896 -3.94,4.55 -7.59,4.95c-0.87,0.09 -1.998,0.23 -2.52,0.32l-0.93,0.14l2.61,3.39c1.42,1.85 4.29,5.56 6.37,8.25l3.76,4.84l-2.43,0l-2.4,0l-6.34,-8.22c-5.97,-7.76 -6.3996,-8.25 -7.27,-8.25l-0.96,-0.03l0,8.25l0,8.25l-2.03,0l-2.03,0l0,-18.098l0.01,0l0,-0.0zm13.29,-2.49c3.65,-0.58 5.68,-2.896 5.47,-6.25c-0.14,-2.2 -1.13,-3.62 -3.27,-4.69c-1.3,-0.67 -1.82,-0.72 -6.43,-0.84l-5.01,-0.14l0,6.14l0,6.11l3.71,0c2.03,0 4.52,-0.14 5.53,-0.32l0,-0.01z"/>
<path d="m82.04,49.02c0,-0.14 3.82,-8.25 8.46,-18.04c6.72,-14.16 8.57,-17.84 9.03,-17.896c0.49,-0.06 1.71,2.4 8.75,17.52c4.49,9.7 8.25,17.84 8.37,18.13c0.17,0.46 0,0.52 -1.91,0.43l-2.08,-0.09l-2.78,-5.88l-2.78,-5.85l-7.67,0.06l-7.64,0.09l-2.75,5.88l-2.75,5.85l-2.14,0c-1.16,0 -2.11,-0.09 -2.08,-0.2l-0.03,0l0,-0.0zm23.19,-15.64c-0.14,-0.29 -1.48,-3.16 -2.95,-6.37c-1.51,-3.21 -2.75,-5.82 -2.78,-5.79c-0.06,0.09 -5.65,11.84 -5.82,12.31c-0.12,0.26 1.16,0.35 5.82,0.35c5.62,0 5.97,-0.03 5.73,-0.49l0,-0.01z"/>
<path d="m122.26,31.13l0,-18.098l9.12,0l9.12,0l0,1.88l0,1.88l-7.24,0l-7.24,0l0,5.5l0,5.5l7.24,0l7.24,0l0,1.88l0,1.88l-7.24,0l-7.24,0l0,8.83l0,8.83l-1.88,0l-1.88,0l0,-18.098l0,0.02l0,-0.0z"/>
<path d="m150.93,33.01l0,-16.22l-3.91,0l-3.91,0l0,-1.88l0,-1.88l9.99,0l9.99,0l0,1.88l0,1.88l-4.05,0l-4.05,0l0,16.22l0,16.22l-2.03,0l-2.03,0l0,-16.22z"/>
<path d="m181.91,31.15l0,-18.13l4.43,0c5.76,0 7.99,0.35 10.16,1.53c2.87,1.59 4.23,4.05 4.23,7.73c0,2.4 -0.87,4.34 -2.72,6.02c-0.75,0.69 -1.33,1.3 -1.27,1.33c0.06,0.03 0.78,0.38 1.62,0.75c2.03,0.898 3.85,2.92 4.69,5.097c0.87,2.32 0.72,5.68 -0.32,7.76c-1.01,2.06 -2.87,3.82 -5.13,4.89l-1.94,0.93l-6.86,0.09l-6.89,0.09l0,-18.098l0,0.01l0,0.0zm14.07,13.49c0.67,-0.35 1.68,-1.16 2.23,-1.82c2.87,-3.33 1.56,-7.88 -2.84,-9.87c-1.22,-0.55 -2.08,-0.67 -5.56,-0.75l-4.14,-0.12l0,6.72l0,6.72l4.58,-0.12c3.97,-0.09 4.69,-0.2 5.73,-0.75l0,-0.01zm-2.92,-17.26c2.37,-1.01 3.65,-2.84 3.68,-5.24c0.03,-3.74 -2.55,-5.36 -8.46,-5.36l-2.61,0l0,5.68l0,5.7l3.13,-0.14c1.998,-0.09 3.5,-0.32 4.26,-0.64z"/>
<path d="m210.58,31.13l0,-18.098l10.42,0l10.42,0l0,1.88l0,1.88l-8.398,0l-8.398,0l0,5.5l0,5.5l8.398,0l8.398,0l0,1.88l0,1.88l-8.398,0l-8.398,0l0,6.95l0,6.95l8.398,0l8.398,0l0,1.88l0,1.88l-10.42,0l-10.42,0l0,-18.098l0,0.02l0,-0.0z"/>
<path d="m237.51,31.13l0,-18.098l10.42,0l10.42,0l0,1.88l0,1.88l-8.54,0l-8.54,0l0,5.5l0,5.5l8.54,0l8.54,0l0,1.88l0,1.88l-8.54,0l-8.54,0l0,6.95l0,6.95l8.54,0l8.54,0l0,1.88l0,1.88l-10.42,0l-10.42,0l0,-18.098l0,0.02l0,-0.0z"/>
<path d="m264.73,31.13l0,-18.098l5.44,0c2.98,0 6.52,0.12 7.82,0.29c4.05,0.46 6.69,2.03 8.34,4.98c0.78,1.42 0.84,1.77 0.84,4.43c0,2.35 -0.12,3.16 -0.61,4.23c-1.48,3.16 -4.29,4.98 -8.48,5.44c-1.3,0.14 -2.46,0.32 -2.55,0.41c-0.12,0.14 2.4,3.47 12.16,16.07c0.2,0.26 -0.26,0.35 -2.14,0.35l-2.43,0l-6.37,-8.25c-6.02,-7.85 -6.3996,-8.25 -7.297,-8.25l-0.96,0l0,8.25l0,8.25l-1.88,0l-1.88,0l0,-18.098l0,0l-0.0,-0.0zm14.57,-2.75c1.71,-0.52 3.3,-2.11 3.82,-3.85c0.84,-2.87 -0.29,-5.47 -3.04,-6.89c-1.1,-0.58 -1.77,-0.67 -6.3996,-0.78l-5.18,-0.14l0,6.17l0,6.17l4.86,-0.17c2.66,-0.09 5.33,-0.29 5.94,-0.49l0,-0.02l-0.0,0z"/>
</g>
</svg>